<?xml version="1.0" encoding="utf-8"?>
<!DOCTYPE svg PUBLIC "-//W3C//DTD SVG 1.1//EN" "http://www.w3.org/Graphics/SVG/1.1/DTD/svg11.dtd">
<svg viewBox="6.3408 23.2901 250.9271 74.8823" xmlns="http://www.w3.org/2000/svg">
  <g transform="matrix(0.9999999999999999, 0, 0, 0.9999999999999999, -3.552713678800501e-15, -3.552713678800501e-15)">
    <g transform="matrix(1, 0, 0, 1, 6.706835, 24.017061)">
      <path fill="#783ea5" d="M29.634,0.273l-30,16.364v33.085l30,16.006l30-16.006V16.813L29.634,0.273z M26.907,58.09L8.732,48.396&#10;&#9;&#9;l11.457-7.639c2.945-1.961-0.18-6.434-3.39-4.295L5.088,44.266V22.717l21.818,11.899L26.907,58.09L26.907,58.09z M8.179,18.19&#9;L26.907,7.974v12.071c0,3.608,5.455,3.611,5.455,0V8.004l18.845,10.394L29.648,29.903C29.648,29.902,8.179,18.19,8.179,18.19z&#10;&#9;&#9; M32.361,34.635l21.818-11.642v21.273l-11.626-7.751c-3.221-2.141-6.335,2.332-3.395,4.293l11.378,7.585l-18.175,9.698&#10;&#9;&#9;C32.361,58.091,32.361,34.635,32.361,34.635z"/>
    </g>
    <path d="M 90.96 64.06 L 99.2 64.06 L 99.2 67.48 L 86.99 67.48 L 86.99 49.34 L 90.96 49.34 Z M 114.51 67.26 L 114.51 67.48 L 110.12 67.48 L 105.61 60.87 L 104.1 60.87 L 104.1 67.48 L 100.12 67.48 L 100.12 49.34 L 106.2 49.34 Q 108.61 49.34 110.22 50.08 Q 111.83 50.82 112.61 52.09 Q 113.39 53.37 113.39 54.99 Q 113.39 56.9 112.44 58.28 Q 111.49 59.67 109.64 60.34 Z M 104.1 57.88 L 105.81 57.88 Q 107.49 57.88 108.4 57.23 Q 109.31 56.59 109.31 55.1 Q 109.31 53.82 108.49 53.17 Q 107.68 52.53 106.23 52.53 L 104.1 52.53 Z" transform="matrix(1.38776, 0, 0, 1.604907, -49.668011, -34.730911)" style="fill: rgb(120, 62, 165);"/>
    <path d="M 124.03 67.84 Q 121.96 67.84 120.25 67.28 Q 118.54 66.72 117.22 65.72 L 118.71 63.48 Q 119.94 64.34 121.28 64.75 Q 122.63 65.16 123.86 65.16 Q 125.71 65.16 126.69 64.53 Q 127.67 63.9 127.67 62.64 Q 127.67 61.88 127.33 61.38 Q 127 60.87 126.18 60.45 Q 125.37 60.03 123.83 59.47 L 123.3 59.28 Q 121.51 58.6 120.43 57.99 Q 119.35 57.37 118.68 56.38 Q 118.01 55.38 118.01 53.87 Q 118.01 52.25 118.92 51.14 Q 119.83 50.04 121.28 49.5 Q 122.74 48.97 124.39 48.97 Q 127.81 48.97 130.64 50.88 L 129.18 53.12 Q 127.92 52.33 126.81 51.97 Q 125.71 51.6 124.36 51.6 Q 122.94 51.6 122.1 52.15 Q 121.26 52.7 121.26 53.76 Q 121.26 54.35 121.56 54.78 Q 121.87 55.22 122.63 55.64 Q 123.38 56.06 124.78 56.56 L 125.34 56.76 Q 127.16 57.4 128.28 58 Q 129.4 58.6 130.19 59.68 Q 130.97 60.76 130.97 62.47 Q 130.97 64.2 130.09 65.42 Q 129.21 66.64 127.65 67.24 Q 126.1 67.84 124.03 67.84 Z M 136.74 67.84 Q 134.73 67.84 133.35 66.96 Q 131.98 66.08 131.3 64.58 Q 130.61 63.08 130.61 61.24 Q 130.61 58.91 131.49 57.46 Q 132.37 56 133.86 55.34 Q 135.34 54.68 137.19 54.68 Q 139.23 54.68 140.61 55.54 Q 141.98 56.39 142.66 57.88 Q 143.35 59.36 143.35 61.26 Q 143.35 63.56 142.47 65.03 Q 141.59 66.5 140.1 67.17 Q 138.62 67.84 136.74 67.84 Z M 136.97 65.49 Q 138.7 65.49 139.44 64.36 Q 140.19 63.22 140.19 61.24 Q 140.19 59.25 139.42 58.14 Q 138.65 57.04 137.05 57.04 Q 135.29 57.04 134.52 58.13 Q 133.75 59.22 133.75 61.24 Q 133.75 63.2 134.54 64.34 Q 135.34 65.49 136.97 65.49 Z M 152.92 50.54 Q 152 50.54 151.5 51.17 Q 150.99 51.8 150.99 52.92 L 150.99 55.08 L 154.55 55.08 L 154.24 57.46 L 150.99 57.46 L 150.99 67.48 L 147.97 67.48 L 147.97 57.46 L 145.9 57.46 L 145.9 55.08 L 147.97 55.08 L 147.97 52.98 Q 147.97 51.52 148.51 50.4 Q 149.06 49.28 150.12 48.65 Q 151.19 48.02 152.67 48.02 Q 154.32 48.02 155.64 48.55 L 154.88 50.93 Q 153.93 50.54 152.92 50.54 Z M 163.21 67 Q 161.59 67.84 159.85 67.84 Q 158.76 67.84 157.89 67.42 Q 157.03 67 156.52 66.11 Q 156.02 65.21 156.02 63.87 L 156.02 57.46 L 153.64 57.46 L 153.64 55.08 L 156.02 55.08 L 156.02 52.28 L 159.04 51.83 L 159.04 55.08 L 162.91 55.08 L 162.6 57.46 L 159.04 57.46 L 159.04 63.39 Q 159.04 64.43 159.42 64.9 Q 159.8 65.38 160.53 65.38 Q 160.95 65.38 161.37 65.27 Q 161.79 65.16 162.37 64.93 Z M 182.51 55.08 L 182.51 55.24 L 178.85 67.48 L 175.96 67.48 L 173.92 60.59 Q 173.5 59.16 173.36 58.3 Q 173.19 59.39 172.83 60.59 L 170.87 67.51 L 167.98 67.51 L 164.06 55.24 L 164.06 55.08 L 167.34 55.08 L 169.16 61.99 Q 169.38 62.83 169.55 63.92 Q 169.86 62.5 170 61.99 L 171.93 55.08 L 174.98 55.08 L 176.94 61.91 Q 177.28 63.17 177.45 64.15 Q 177.56 63.08 177.81 61.91 L 179.46 55.08 Z M 186.71 54.68 Q 189.01 54.68 190.16 55.66 Q 191.3 56.64 191.3 58.8 L 191.3 67.48 L 188.67 67.48 L 188.45 66.44 Q 187.41 67.2 186.33 67.52 Q 185.26 67.84 184.11 67.84 Q 182.99 67.84 182.13 67.42 Q 181.28 67 180.8 66.23 Q 180.33 65.46 180.33 64.46 Q 180.33 62.94 181.39 61.92 Q 182.46 60.9 184.25 60.4 Q 186.04 59.89 188.28 59.84 L 188.28 59.36 Q 188.28 58.16 187.83 57.62 Q 187.38 57.09 186.26 57.09 Q 184.33 57.09 182.12 58.52 L 180.89 56.59 Q 182.23 55.64 183.66 55.16 Q 185.09 54.68 186.71 54.68 Z M 183.49 64.12 Q 183.49 64.79 183.9 65.14 Q 184.3 65.49 185.09 65.49 Q 186.66 65.49 188.28 64.54 L 188.28 61.85 Q 186.04 61.96 184.77 62.54 Q 183.49 63.11 183.49 64.12 Z M 201.11 54.68 Q 201.89 54.68 202.73 54.94 L 202.23 58.02 Q 201.78 57.85 201.39 57.76 Q 200.99 57.68 200.52 57.68 Q 199.71 57.68 198.99 58.04 Q 198.28 58.41 197.58 59.42 L 197.58 67.48 L 194.55 67.48 L 194.55 55.08 L 197.58 54.8 L 197.58 56.56 Q 198.25 55.64 199.16 55.16 Q 200.07 54.68 201.11 54.68 Z M 215.62 60 Q 215.62 60.87 215.53 61.88 L 207.19 61.88 Q 207.3 63.73 208.24 64.6 Q 209.18 65.46 210.58 65.46 Q 211.59 65.46 212.4 65.2 Q 213.21 64.93 214.25 64.34 L 215.31 66.3 Q 214.3 67 213.06 67.42 Q 211.81 67.84 210.35 67.84 Q 208.56 67.84 207.18 67.2 Q 205.79 66.56 204.98 65.13 Q 204.17 63.7 204.17 61.43 Q 204.17 59.47 204.87 57.95 Q 205.57 56.42 206.94 55.55 Q 208.31 54.68 210.24 54.68 Q 211.98 54.68 213.18 55.37 Q 214.39 56.06 215 57.27 Q 215.62 58.49 215.62 60 Z M 210.27 56.87 Q 209.04 56.87 208.31 57.62 Q 207.58 58.38 207.33 59.78 L 212.71 59.78 L 212.71 59.7 Q 212.71 58.24 212.05 57.55 Q 211.39 56.87 210.27 56.87 Z" transform="matrix(1.38776, 0, 0, 1.604907, -49.668011, -34.730911)" style="fill: rgb(51, 51, 51);"/>
  </g>
</svg>
